<svg width="800" height="800" viewBox="0 0 800 800" fill="none" xmlns="http://www.w3.org/2000/svg">
<g id="footer" clip-path="url(#clip0_108_4)">
<g id="BACKGROUND">
<g id="Group">
<g id="third-layer">
<mask id="mask0_108_4" style="mask-type:luminance" maskUnits="userSpaceOnUse" x="0" y="0" width="800" height="800">
<g id="SVGID_00000117638804252988847700000015393101603832371090_">
<path id="Vector" d="M800 0H0V800H800V0Z" fill="white"/>
</g>
</mask>
<g mask="url(#mask0_108_4)">
<path id="Vector_2" d="M-89.579 587.946C-89.579 587.946 45.797 567.837 74.01 572.088C102.223 576.339 186.605 604.692 244.661 585.339C302.719 565.985 331.628 563.911 379.661 569.339C427.696 574.767 617.986 585.64 678.74 581.489C739.494 577.339 887.082 542.519 887.082 542.519V800H-89.579V587.946Z" fill="#558CAA"/>
</g>
</g>
<g id="second-layer">
<g id="Clip path group">
<mask id="mask1_108_4" style="mask-type:luminance" maskUnits="userSpaceOnUse" x="0" y="0" width="800" height="800">
<g id="SVGID_00000117638804252988847700000015393101603832371090__2">
<path id="Vector_3" d="M800 0H0V800H800V0Z" fill="white"/>
</g>
</mask>
<g mask="url(#mask1_108_4)">
<path id="Vector_4" d="M-20.484 823.574H826.024V584.86C826.024 584.86 602.266 592.915 549.362 550.601C496.457 508.288 462.134 454.691 435.901 454.691C391.302 454.691 365.895 553.412 234.777 590.094C228.517 591.845 174.082 570.347 151.127 568.937C128.173 567.527 103.25 580.221 58.653 557.654C14.055 535.087 -20.483 544.96 -20.483 544.96L-20.484 823.574Z" fill="url(#paint0_linear_108_4)"/>
</g>
</g>
<g id="Clip path group_2">
<mask id="mask2_108_4" style="mask-type:luminance" maskUnits="userSpaceOnUse" x="0" y="0" width="800" height="800">
<g id="SVGID_00000117638804252988847700000015393101603832371090__3">
<path id="Vector_5" d="M800 0H0V800H800V0Z" fill="white"/>
</g>
</mask>
<g mask="url(#mask2_108_4)">
<g id="Group_2">
<path id="Vector_6" d="M26.253 464.634L30.03 475.368C30.03 475.368 45.535 481.531 99.804 481.531V471.391C99.804 471.391 56.071 473.082 26.253 464.634Z" fill="url(#paint1_linear_108_4)"/>
<path id="Vector_7" d="M19.743 454.691L23.854 466.376C23.854 466.376 40.732 473.083 99.804 473.083V462.047C99.804 462.047 52.201 463.886 19.743 454.691Z" fill="url(#paint2_linear_108_4)"/>
<path id="Vector_8" d="M37.882 497.978L41.062 507.016C41.062 507.016 54.115 512.204 99.804 512.204V503.669C99.804 503.669 62.986 505.09 37.882 497.978Z" fill="url(#paint3_linear_108_4)"/>
<g id="Group_3">
<path id="Vector_9" d="M125.195 558.399C125.195 560.83 127.166 562.799 129.596 562.799C132.026 562.799 133.996 560.83 133.996 558.399V491.917C133.996 489.487 132.025 487.517 129.596 487.517C127.166 487.517 125.195 489.488 125.195 491.917V558.399Z" fill="url(#paint4_linear_108_4)"/>
<path id="Vector_10" d="M125.195 572.364C125.195 574.794 127.166 576.764 129.596 576.764C132.026 576.764 133.996 574.793 133.996 572.364V505.883C133.996 503.451 132.025 501.483 129.596 501.483C127.166 501.483 125.195 503.452 125.195 505.883V572.364Z" fill="url(#paint5_linear_108_4)"/>
<path id="Vector_11" d="M119.572 486.661C119.572 490.442 122.637 493.507 126.417 493.507H133.996C137.776 493.507 140.84 490.443 140.84 486.661C140.84 482.881 137.776 479.816 133.996 479.816H126.417C122.637 479.816 119.572 482.88 119.572 486.661Z" fill="url(#paint6_linear_108_4)"/>
</g>
<path id="Vector_12" d="M173.355 464.634L169.578 475.368C169.578 475.368 154.073 481.531 99.804 481.531V471.391C99.804 471.391 143.537 473.082 173.355 464.634Z" fill="url(#paint7_linear_108_4)"/>
<path id="Vector_13" d="M179.866 454.691L175.754 466.376C175.754 466.376 158.876 473.083 99.804 473.083V462.047C99.804 462.047 147.408 463.886 179.866 454.691Z" fill="url(#paint8_linear_108_4)"/>
<path id="Vector_14" d="M161.727 497.978L158.547 507.016C158.547 507.016 145.493 512.204 99.805 512.204V503.669C99.805 503.669 136.622 505.09 161.727 497.978Z" fill="url(#paint9_linear_108_4)"/>
<g id="Group_4">
<g id="Group_5">
<path id="Vector_15" d="M74.412 558.399C74.412 560.83 72.442 562.799 70.012 562.799C67.582 562.799 65.611 560.83 65.611 558.399V491.917C65.611 489.487 67.582 487.517 70.012 487.517C72.442 487.517 74.412 489.488 74.412 491.917V558.399Z" fill="url(#paint10_linear_108_4)"/>
<path id="Vector_16" d="M80.036 486.661C80.036 490.442 76.971 493.507 73.191 493.507H65.611C61.831 493.507 58.766 490.443 58.766 486.661C58.766 482.881 61.83 479.816 65.611 479.816H73.191C76.97 479.816 80.036 482.88 80.036 486.661Z" fill="url(#paint11_linear_108_4)"/>
</g>
<path id="Vector_17" d="M65.611 572.364C65.611 574.794 67.582 576.764 70.012 576.764C72.442 576.764 74.412 574.793 74.412 572.364V505.883C74.412 503.451 72.442 501.483 70.012 501.483C67.582 501.483 65.611 503.452 65.611 505.883V572.364Z" fill="url(#paint12_linear_108_4)"/>
</g>
</g>
</g>
</g>
<g id="Clip path group_3">
<mask id="mask3_108_4" style="mask-type:luminance" maskUnits="userSpaceOnUse" x="0" y="0" width="800" height="800">
<g id="SVGID_00000117638804252988847700000015393101603832371090__4">
<path id="Vector_18" d="M800 0H0V800H800V0Z" fill="white"/>
</g>
</mask>
<g mask="url(#mask3_108_4)">
<path id="Vector_19" d="M171.866 524.042C171.866 525.148 170.76 526.045 169.398 526.045C168.036 526.045 166.93 525.148 166.93 524.042C166.93 522.936 168.035 522.039 169.398 522.039C170.761 522.039 171.866 522.936 171.866 524.042Z" fill="url(#paint13_linear_108_4)"/>
</g>
</g>
<g id="Clip path group_4">
<mask id="mask4_108_4" style="mask-type:luminance" maskUnits="userSpaceOnUse" x="0" y="0" width="800" height="800">
<g id="SVGID_00000117638804252988847700000015393101603832371090__5">
<path id="Vector_20" d="M800 0H0V800H800V0Z" fill="white"/>
</g>
</mask>
<g mask="url(#mask4_108_4)">
<path id="Vector_21" d="M175.746 521.158C175.746 522.619 174.325 523.803 172.572 523.803C170.819 523.803 169.398 522.619 169.398 521.158C169.398 519.698 170.819 518.513 172.572 518.513C174.325 518.513 175.746 519.698 175.746 521.158Z" fill="url(#paint14_linear_108_4)"/>
</g>
</g>
<g id="Clip path group_5">
<mask id="mask5_108_4" style="mask-type:luminance" maskUnits="userSpaceOnUse" x="0" y="0" width="800" height="800">
<g id="SVGID_00000117638804252988847700000015393101603832371090__6">
<path id="Vector_22" d="M800 0H0V800H800V0Z" fill="white"/>
</g>
</mask>
<g mask="url(#mask5_108_4)">
<path id="Vector_23" d="M251.204 496.21C251.204 498.109 249.225 499.648 246.783 499.648C244.341 499.648 242.361 498.109 242.361 496.21C242.361 494.312 244.341 492.772 246.783 492.772C249.225 492.773 251.204 494.312 251.204 496.21Z" fill="url(#paint15_linear_108_4)"/>
</g>
</g>
<g id="Clip path group_6">
<mask id="mask6_108_4" style="mask-type:luminance" maskUnits="userSpaceOnUse" x="0" y="0" width="800" height="800">
<g id="SVGID_00000117638804252988847700000015393101603832371090__7">
<path id="Vector_24" d="M800 0H0V800H800V0Z" fill="white"/>
</g>
</mask>
<g mask="url(#mask6_108_4)">
<path id="Vector_25" d="M271.729 510.043C268.203 510.043 264.206 513.569 263.735 512.158C263.265 510.748 264.205 509.573 265.615 508.633C267.026 507.692 268.436 509.102 267.026 506.046C265.615 502.99 270.552 504.637 265.615 502.99C260.679 501.344 262.325 501.109 260.679 501.344C259.033 501.579 257.153 503.06 257.153 503.06H255.508C255.508 503.06 255.273 501.66 253.392 501.267C251.511 500.874 250.588 502.284 249.287 499.934C247.986 497.583 247.986 497.583 247.986 497.583C247.986 497.583 248.281 493.586 246.135 492.176C243.989 490.766 247.047 490.946 243.989 490.766C240.931 490.585 236.467 487.71 234.351 488.18C232.235 488.65 232.265 491.941 232.265 491.941C232.265 491.941 224.948 492.881 223.302 492.647C221.656 492.412 222.597 491.471 218.836 491.941C215.074 492.412 213.194 492.881 213.194 493.586C213.194 494.105 213.194 495.511 213.194 496.221C212.963 496.192 212.729 496.172 212.488 496.172C210.591 496.172 208.978 497.11 208.357 498.424C207.251 498.451 206.328 498.488 205.658 498.758C204.495 499.228 201.734 499.228 199.353 499.698C196.973 500.169 195.327 500.639 194.622 501.108C193.916 501.579 189.216 501.955 188.51 503.059C187.805 504.163 180.518 509.176 181.458 509.491C181.872 509.63 182.786 510.026 183.58 510.487C182.806 511.028 182.3 511.852 182.3 512.788C182.3 512.826 182.311 512.86 182.313 512.898C181.709 513.026 181.148 513.166 180.753 513.422C179.812 514.037 178.637 511.398 177.932 513.422C177.226 515.447 166.883 519.679 168.293 522.735C168.293 522.735 166.649 529.316 171.82 528.141C172.261 528.04 172.674 527.927 173.076 527.809C174.699 529.025 177.734 529.845 181.22 529.845C186.304 529.845 190.434 528.103 190.604 525.928C195.915 525.721 199.97 524.635 199.97 523.321C199.97 523.234 199.949 523.149 199.915 523.065C202.426 524.712 206.524 525.79 211.166 525.79C212.786 525.79 214.334 525.652 215.778 525.412C215.095 526.852 214.523 528.266 214.133 529.551C211.781 537.309 196.267 546.829 196.972 549.885C197.678 552.942 192.035 549.533 195.092 554.704C198.148 559.875 210.607 559.053 212.135 560.346C213.663 561.639 211.782 562.344 210.372 566.106C208.962 569.868 205.906 570.807 204.848 572.57C203.79 574.333 202.967 574.098 199.912 574.569C196.856 575.039 179.52 587.498 179.52 587.498C180.873 596.313 209.667 589.025 210.607 588.791C211.547 588.556 212.958 581.504 212.723 579.405C212.488 577.306 217.19 581.738 217.425 574.686C217.66 567.633 222.596 566.458 223.537 562.89C224.478 559.323 222.361 559.641 220.951 556.35C219.54 553.058 218.6 555.41 216.249 553.058C213.897 550.707 212.723 551.648 206.611 551.706C200.499 551.765 205.905 544.596 210.842 541.774C215.779 538.953 218.834 533.546 221.42 529.315C222.453 527.624 223.52 525.82 224.388 523.919C225.309 524.371 226.484 524.643 227.766 524.643C228.672 524.643 229.524 524.506 230.272 524.268C230.977 525.119 230.037 527.014 234.585 528.28C239.992 529.786 243.578 531.901 246.134 530.256C248.69 528.61 250.323 528.758 253.861 527.905C257.399 527.053 255.529 530.196 257.399 527.053C259.268 523.909 256.447 526.283 260.679 522.862C264.91 519.442 267.261 519.442 268.202 519.442C269.142 519.442 272.198 518.503 273.138 515.917C274.079 513.333 275.255 510.043 271.729 510.043ZM197.038 521.544C197.371 521.468 197.684 521.37 197.974 521.255C198.172 521.549 198.426 521.831 198.706 522.106C198.254 521.901 197.69 521.713 197.038 521.544Z" fill="url(#paint16_linear_108_4)"/>
</g>
</g>
<g id="Clip path group_7">
<mask id="mask7_108_4" style="mask-type:luminance" maskUnits="userSpaceOnUse" x="0" y="0" width="800" height="800">
<g id="SVGID_00000117638804252988847700000015393101603832371090__8">
<path id="Vector_26" d="M800 0H0V800H800V0Z" fill="white"/>
</g>
</mask>
<g mask="url(#mask7_108_4)">
<path id="Vector_27" d="M-60.115 530.375C-59.175 532.961 -56.118 533.901 -55.178 533.901C-54.238 533.901 -51.886 533.901 -47.656 537.321C-43.425 540.741 -46.245 538.367 -44.376 541.511C-42.507 544.655 -44.376 541.511 -40.838 542.363C-37.3 543.216 -35.666 543.068 -33.11 544.714C-30.554 546.36 -26.968 544.244 -21.561 542.739C-17.014 541.472 -17.954 539.577 -17.248 538.726C-16.5 538.965 -15.648 539.101 -14.743 539.101C-13.461 539.101 -12.286 538.83 -11.365 538.377C-10.496 540.278 -9.42899 542.082 -8.39699 543.773C-5.81099 548.005 -2.75499 553.411 2.18201 556.231C7.11901 559.052 12.525 566.221 6.41301 566.163C0.30101 566.104 -0.873987 565.164 -3.22499 567.516C-5.57599 569.867 -6.51599 567.516 -7.92699 570.807C-9.33799 574.098 -11.454 573.78 -10.513 577.347C-9.57199 580.914 -4.63599 582.09 -4.40099 589.143C-4.16599 596.195 0.537014 591.763 0.301014 593.862C0.0660139 595.961 1.47701 603.012 2.41701 603.248C3.35701 603.482 32.151 610.77 33.504 601.955C33.504 601.955 16.168 589.497 13.112 589.026C10.056 588.555 9.23301 588.791 8.17501 587.027C7.11701 585.264 4.06201 584.325 2.65101 580.563C1.24101 576.801 -0.639988 576.096 0.888012 574.803C2.41601 573.511 14.876 574.333 17.931 569.161C20.987 563.99 15.345 567.398 16.05 564.343C16.755 561.286 1.24101 551.766 -1.10999 544.008C-1.49899 542.724 -2.07099 541.309 -2.75499 539.869C-1.31099 540.109 0.237014 540.247 1.85701 540.247C6.49901 540.247 10.597 539.17 13.107 537.522C13.073 537.606 13.052 537.692 13.052 537.778C13.052 539.091 17.107 540.177 22.418 540.385C22.587 542.561 26.718 544.302 31.801 544.302C35.286 544.302 38.322 543.482 39.945 542.266C40.346 542.384 40.759 542.498 41.2 542.598C46.371 543.773 44.727 537.192 44.727 537.192C46.138 534.136 35.794 529.904 35.089 527.879C34.383 525.854 33.209 528.493 32.268 527.879C31.873 527.621 31.311 527.482 30.708 527.354C30.709 527.317 30.72 527.282 30.72 527.245C30.72 526.308 30.215 525.485 29.441 524.943C30.235 524.483 31.149 524.086 31.563 523.948C32.503 523.632 25.216 518.621 24.511 517.516C23.806 516.411 19.105 516.035 18.4 515.565C17.695 515.094 16.049 514.625 13.669 514.154C11.289 513.684 8.52701 513.684 7.36501 513.215C6.69501 512.944 5.77202 512.907 4.66602 512.88C4.04502 511.567 2.43301 510.629 0.535011 510.629C0.294011 510.629 0.0600138 510.648 -0.170986 510.677C-0.170986 509.968 -0.170986 508.561 -0.170986 508.042C-0.170986 507.337 -2.05099 506.867 -5.81299 506.397C-9.57499 505.926 -8.63399 506.867 -10.279 507.102C-11.924 507.336 -19.241 506.397 -19.241 506.397C-19.241 506.397 -19.212 503.105 -21.328 502.635C-23.443 502.165 -27.908 505.041 -30.965 505.221C-34.023 505.401 -30.965 505.221 -33.111 506.631C-35.257 508.041 -34.961 512.038 -34.961 512.038C-34.961 512.038 -34.961 512.038 -36.263 514.389C-37.565 516.74 -38.488 515.329 -40.368 515.722C-42.249 516.115 -42.483 517.516 -42.483 517.516H-44.129C-44.129 517.516 -46.01 516.035 -47.655 515.799C-49.3 515.564 -47.655 515.799 -52.592 517.445C-57.529 519.091 -52.592 517.445 -54.002 520.501C-55.413 523.557 -54.002 522.146 -52.592 523.087C-51.181 524.027 -50.241 525.202 -50.711 526.613C-51.181 528.023 -55.178 524.497 -58.704 524.497C-62.23 524.498 -61.055 527.789 -60.115 530.375ZM14.319 536.56C14.6 536.286 14.854 536.003 15.052 535.709C15.341 535.825 15.655 535.922 15.987 535.998C15.334 536.167 14.77 536.356 14.319 536.56Z" fill="url(#paint17_linear_108_4)"/>
</g>
</g>
</g>
<g id="first-layer">
<g id="Clip path group_8">
<mask id="mask8_108_4" style="mask-type:luminance" maskUnits="userSpaceOnUse" x="0" y="0" width="800" height="800">
<g id="SVGID_00000117638804252988847700000015393101603832371090__9">
<path id="Vector_28" d="M800 0H0V800H800V0Z" fill="white"/>
</g>
</mask>
<g mask="url(#mask8_108_4)">
<path id="Vector_29" d="M-61.28 693.506C-61.28 693.506 54.757 669.56 179.866 737.841H-61.28V693.506Z" fill="#44408D"/>
</g>
</g>
<g id="Clip path group_9">
<mask id="mask9_108_4" style="mask-type:luminance" maskUnits="userSpaceOnUse" x="0" y="0" width="800" height="800">
<g id="SVGID_00000117638804252988847700000015393101603832371090__10">
<path id="Vector_30" d="M800 0H0V800H800V0Z" fill="white"/>
</g>
</mask>
<g mask="url(#mask9_108_4)">
<path id="Vector_31" d="M682.57 693.506C682.57 693.506 566.532 669.56 441.423 737.841H682.57V693.506Z" fill="#44408D"/>
</g>
</g>
<g id="Clip path group_10">
<mask id="mask10_108_4" style="mask-type:luminance" maskUnits="userSpaceOnUse" x="0" y="0" width="800" height="800">
<g id="SVGID_00000117638804252988847700000015393101603832371090__11">
<path id="Vector_32" d="M800 0H0V800H800V0Z" fill="white"/>
</g>
</mask>
<g mask="url(#mask10_108_4)">
<path id="Vector_33" d="M175.631 659.176C134.263 700.544 38.855 711.032 38.855 711.032L35.112 737.841H143.126V713.345C143.126 705.166 149.756 698.535 157.935 698.535C166.112 698.535 172.743 705.166 172.743 713.345V737.841H201.831V673.986C201.831 665.807 208.462 659.176 216.64 659.176C224.818 659.176 231.448 665.807 231.448 673.986V737.841H260.996V647.855C260.996 639.676 267.626 633.045 275.805 633.045C283.983 633.045 290.613 639.676 290.613 647.855V737.841H310.375V580.514C278.854 580.514 216.999 617.809 175.631 659.176Z" fill="url(#paint18_linear_108_4)"/>
</g>
</g>
<g id="Clip path group_11">
<mask id="mask11_108_4" style="mask-type:luminance" maskUnits="userSpaceOnUse" x="0" y="0" width="800" height="800">
<g id="SVGID_00000117638804252988847700000015393101603832371090__12">
<path id="Vector_34" d="M800 0H0V800H800V0Z" fill="white"/>
</g>
</mask>
<g mask="url(#mask11_108_4)">
<path id="Vector_35" d="M477.621 713.345C477.621 705.166 470.99 698.535 462.811 698.535C454.634 698.535 448.003 705.166 448.003 713.345V737.841H418.915V673.986C418.915 665.807 412.284 659.176 404.106 659.176C395.928 659.176 389.298 665.807 389.298 673.986V737.841H359.75V647.855C359.75 639.676 353.119 633.045 344.941 633.045C336.763 633.045 330.134 639.676 330.134 647.855V737.841H309.912L310.112 580.514C341.631 580.514 403.746 617.809 445.114 659.176C486.482 700.544 581.889 711.032 581.889 711.032L585.632 737.841H477.621V713.345Z" fill="url(#paint19_linear_108_4)"/>
</g>
</g>
<g id="Clip path group_12">
<mask id="mask12_108_4" style="mask-type:luminance" maskUnits="userSpaceOnUse" x="0" y="0" width="800" height="800">
<g id="SVGID_00000117638804252988847700000015393101603832371090__13">
<path id="Vector_36" d="M800 0H0V800H800V0Z" fill="white"/>
</g>
</mask>
<g mask="url(#mask12_108_4)">
<path id="Vector_37" d="M40.364 695.557C40.364 695.557 118.635 690.829 169.065 644.076C219.494 597.324 263.621 563.704 310.373 563.704V558.451C310.373 558.451 278.066 554.117 230.788 586.029C183.511 617.942 188.041 620.996 160.068 643.058C132.096 665.121 104.658 680.157 29.843 691.943L40.364 695.557Z" fill="url(#paint20_linear_108_4)"/>
</g>
</g>
<g id="Clip path group_13">
<mask id="mask13_108_4" style="mask-type:luminance" maskUnits="userSpaceOnUse" x="0" y="0" width="800" height="800">
<g id="SVGID_00000117638804252988847700000015393101603832371090__14">
<path id="Vector_38" d="M800 0H0V800H800V0Z" fill="white"/>
</g>
</mask>
<g mask="url(#mask13_108_4)">
<path id="Vector_39" d="M580.381 695.557C580.381 695.557 502.11 690.829 451.681 644.076C401.251 597.324 357.125 563.704 310.372 563.704V558.451C310.372 558.451 342.68 554.117 389.957 586.029C437.235 617.942 432.705 620.996 460.677 643.058C488.651 665.121 516.088 680.157 590.903 691.943L580.381 695.557Z" fill="url(#paint21_linear_108_4)"/>
</g>
</g>
<g id="Clip path group_14">
<mask id="mask14_108_4" style="mask-type:luminance" maskUnits="userSpaceOnUse" x="0" y="0" width="800" height="800">
<g id="SVGID_00000117638804252988847700000015393101603832371090__15">
<path id="Vector_40" d="M800 0H0V800H800V0Z" fill="white"/>
</g>
</mask>
<g mask="url(#mask14_108_4)">
<path id="Vector_41" d="M89.253 700.834C89.253 702.779 87.676 704.355 85.732 704.355C83.787 704.355 82.21 702.779 82.21 700.834V660.798C82.21 658.853 83.787 657.275 85.732 657.275C87.677 657.275 89.253 658.852 89.253 660.798V700.834Z" fill="url(#paint22_linear_108_4)"/>
</g>
</g>
<g id="Clip path group_15">
<mask id="mask15_108_4" style="mask-type:luminance" maskUnits="userSpaceOnUse" x="0" y="0" width="800" height="800">
<g id="SVGID_00000117638804252988847700000015393101603832371090__16">
<path id="Vector_42" d="M800 0H0V800H800V0Z" fill="white"/>
</g>
</mask>
<g mask="url(#mask15_108_4)">
<path id="Vector_43" d="M138.633 685.915C138.633 687.86 137.056 689.437 135.111 689.437C133.165 689.437 131.589 687.86 131.589 685.915V645.879C131.589 643.934 133.166 642.358 135.111 642.358C137.056 642.358 138.633 643.934 138.633 645.879V685.915Z" fill="url(#paint23_linear_108_4)"/>
</g>
</g>
<g id="Clip path group_16">
<mask id="mask16_108_4" style="mask-type:luminance" maskUnits="userSpaceOnUse" x="0" y="0" width="800" height="800">
<g id="SVGID_00000117638804252988847700000015393101603832371090__17">
<path id="Vector_44" d="M800 0H0V800H800V0Z" fill="white"/>
</g>
</mask>
<g mask="url(#mask16_108_4)">
<path id="Vector_45" d="M186.911 652.033C186.911 653.978 185.334 655.554 183.389 655.554C181.443 655.554 179.866 653.978 179.866 652.033V611.996C179.866 610.052 181.443 608.474 183.389 608.474C185.334 608.474 186.911 610.051 186.911 611.996V652.033Z" fill="url(#paint24_linear_108_4)"/>
</g>
</g>
<g id="Clip path group_17">
<mask id="mask17_108_4" style="mask-type:luminance" maskUnits="userSpaceOnUse" x="0" y="0" width="800" height="800">
<g id="SVGID_00000117638804252988847700000015393101603832371090__18">
<path id="Vector_46" d="M800 0H0V800H800V0Z" fill="white"/>
</g>
</mask>
<g mask="url(#mask17_108_4)">
<path id="Vector_47" d="M239.179 613.422C239.179 615.367 237.603 616.944 235.657 616.944C233.712 616.944 232.135 615.367 232.135 613.422V573.386C232.135 571.441 233.712 569.865 235.657 569.865C237.603 569.865 239.179 571.441 239.179 573.386V613.422Z" fill="url(#paint25_linear_108_4)"/>
</g>
</g>
<g id="Clip path group_18">
<mask id="mask18_108_4" style="mask-type:luminance" maskUnits="userSpaceOnUse" x="0" y="0" width="800" height="800">
<g id="SVGID_00000117638804252988847700000015393101603832371090__19">
<path id="Vector_48" d="M800 0H0V800H800V0Z" fill="white"/>
</g>
</mask>
<g mask="url(#mask18_108_4)">
<path id="Vector_49" d="M295.649 585.68C295.649 587.625 294.072 589.201 292.127 589.201C290.181 589.201 288.605 587.626 288.605 585.68V545.644C288.605 543.699 290.181 542.121 292.127 542.121C294.072 542.121 295.649 543.698 295.649 545.644V585.68Z" fill="url(#paint26_linear_108_4)"/>
</g>
</g>
<g id="Clip path group_19">
<mask id="mask19_108_4" style="mask-type:luminance" maskUnits="userSpaceOnUse" x="0" y="0" width="800" height="800">
<g id="SVGID_00000117638804252988847700000015393101603832371090__20">
<path id="Vector_50" d="M800 0H0V800H800V0Z" fill="white"/>
</g>
</mask>
<g mask="url(#mask19_108_4)">
<path id="Vector_51" d="M335.835 585.68C335.835 587.625 334.258 589.201 332.313 589.201C330.368 589.201 328.791 587.626 328.791 585.68V545.644C328.791 543.699 330.368 542.121 332.313 542.121C334.258 542.121 335.835 543.698 335.835 545.644V585.68Z" fill="url(#paint27_linear_108_4)"/>
</g>
</g>
<g id="Clip path group_20">
<mask id="mask20_108_4" style="mask-type:luminance" maskUnits="userSpaceOnUse" x="0" y="0" width="800" height="800">
<g id="SVGID_00000117638804252988847700000015393101603832371090__21">
<path id="Vector_52" d="M800 0H0V800H800V0Z" fill="white"/>
</g>
</mask>
<g mask="url(#mask20_108_4)">
<path id="Vector_53" d="M389.417 613.422C389.417 615.367 387.84 616.944 385.895 616.944C383.95 616.944 382.373 615.367 382.373 613.422V573.386C382.373 571.441 383.95 569.865 385.895 569.865C387.84 569.865 389.417 571.441 389.417 573.386V613.422Z" fill="url(#paint28_linear_108_4)"/>
</g>
</g>
<g id="Clip path group_21">
<mask id="mask21_108_4" style="mask-type:luminance" maskUnits="userSpaceOnUse" x="0" y="0" width="800" height="800">
<g id="SVGID_00000117638804252988847700000015393101603832371090__22">
<path id="Vector_54" d="M800 0H0V800H800V0Z" fill="white"/>
</g>
</mask>
<g mask="url(#mask21_108_4)">
<path id="Vector_55" d="M441.422 652.033C441.422 653.978 439.846 655.554 437.901 655.554C435.956 655.554 434.379 653.978 434.379 652.033V611.996C434.379 610.052 435.955 608.474 437.901 608.474C439.846 608.474 441.422 610.051 441.422 611.996V652.033Z" fill="url(#paint29_linear_108_4)"/>
</g>
</g>
<g id="Clip path group_22">
<mask id="mask22_108_4" style="mask-type:luminance" maskUnits="userSpaceOnUse" x="0" y="0" width="800" height="800">
<g id="SVGID_00000117638804252988847700000015393101603832371090__23">
<path id="Vector_56" d="M800 0H0V800H800V0Z" fill="white"/>
</g>
</mask>
<g mask="url(#mask22_108_4)">
<path id="Vector_57" d="M487.912 685.915C487.912 687.86 486.336 689.437 484.391 689.437C482.446 689.437 480.869 687.86 480.869 685.915V645.879C480.869 643.934 482.446 642.358 484.391 642.358C486.336 642.358 487.912 643.934 487.912 645.879V685.915Z" fill="url(#paint30_linear_108_4)"/>
</g>
</g>
<g id="Clip path group_23">
<mask id="mask23_108_4" style="mask-type:luminance" maskUnits="userSpaceOnUse" x="0" y="0" width="800" height="800">
<g id="SVGID_00000117638804252988847700000015393101603832371090__24">
<path id="Vector_58" d="M800 0H0V800H800V0Z" fill="white"/>
</g>
</mask>
<g mask="url(#mask23_108_4)">
<path id="Vector_59" d="M539.933 702.736C539.933 704.682 538.356 706.257 536.41 706.257C534.465 706.257 532.889 704.682 532.889 702.736V662.701C532.889 660.756 534.465 659.178 536.41 659.178C538.355 659.178 539.933 660.755 539.933 662.701V702.736Z" fill="url(#paint31_linear_108_4)"/>
</g>
</g>
<g id="Clip path group_24">
<mask id="mask24_108_4" style="mask-type:luminance" maskUnits="userSpaceOnUse" x="0" y="0" width="800" height="800">
<g id="SVGID_00000117638804252988847700000015393101603832371090__25">
<path id="Vector_60" d="M800 0H0V800H800V0Z" fill="white"/>
</g>
</mask>
<g mask="url(#mask24_108_4)">
<path id="Vector_61" d="M884.275 737.841H641.317L600.812 690.615C600.812 690.615 670.734 676.645 740.074 674.019C809.416 671.391 884.275 635.146 884.275 635.146V737.841Z" fill="#44408D"/>
</g>
</g>
<g id="Clip path group_25">
<mask id="mask25_108_4" style="mask-type:luminance" maskUnits="userSpaceOnUse" x="0" y="0" width="800" height="800">
<g id="SVGID_00000117638804252988847700000015393101603832371090__26">
<path id="Vector_62" d="M800 0H0V800H800V0Z" fill="white"/>
</g>
</mask>
<g mask="url(#mask25_108_4)">
<path id="Vector_63" d="M871.114 562.989C865.232 563.968 859.196 564.388 853.053 564.32L859.211 544.878L844.232 563.9C817.915 561.712 790.046 551.368 763.933 537.958H769.934V521.887V520.195V507.93V506.185V506.098H732.575V501.165C782.539 495.806 826.897 482.15 826.897 482.15V482.12C831.64 476.83 840.309 457.599 840.309 457.599L824.825 467.891C819.87 469.191 814.938 470.074 810.04 470.585L815.893 452.102L800.925 471.112C787.764 471.283 774.916 468.899 762.632 464.791H769.935V449.242V447.028V435.284V433.54V433.451H732.818L733.047 417.51C770.924 411.253 800.31 402.205 800.31 402.205V402.196H800.385C805.127 396.917 815.894 367.515 815.894 367.515L802.361 385.278C792.791 386.872 783.575 387.086 774.74 386.195L780.791 367.092L766.645 385.056C702.092 373.409 652.805 290.116 652.805 290.116L651.793 291.921C644.852 304.025 602.506 373.409 537.954 385.056L523.808 367.092L529.858 386.195C521.024 387.086 511.808 386.873 502.238 385.278L488.704 367.515C488.704 367.515 499.472 396.917 504.214 402.196H504.288V402.205C504.288 402.205 533.674 411.253 571.552 417.51L571.781 433.451H534.664V433.54V435.284V447.028V449.242V464.791H541.967C529.683 468.899 516.835 471.283 503.674 471.112L488.705 452.102L494.559 470.585C489.66 470.073 484.727 469.19 479.773 467.891L464.289 457.599C464.289 457.599 472.958 476.83 477.7 482.12V482.15C477.7 482.15 522.058 495.805 572.023 501.165V506.098H534.664V506.185V507.93V520.195V521.887V537.958H540.665C514.552 551.368 486.685 561.713 460.367 563.9L445.388 544.878L451.545 564.32C445.402 564.388 439.366 563.968 433.483 562.989L412.903 550.62C412.903 550.62 425.598 567.919 430.341 573.198C430.341 573.198 483.141 589.455 538.421 593.455V594.497C538.421 598.966 542.044 602.588 546.511 602.588H552.147V702.308H579.993V602.588H585.647C590.114 602.588 593.735 598.966 593.735 594.497V594.337H651.795H652.807H710.866V594.497C710.866 598.966 714.488 602.588 718.956 602.588H724.61V702.308H752.455V602.588H758.092C762.559 602.588 766.182 598.966 766.182 594.497V593.455C821.461 589.455 874.262 573.198 874.262 573.198C879.003 567.919 891.7 550.62 891.7 550.62L871.114 562.989ZM763.06 435.283H768.1V447.027H763.06V435.283ZM756.134 435.283H761.228V447.027H756.134V435.283ZM747.298 435.283H754.302V447.027H747.298V435.283ZM740.372 435.283H745.466V447.027H740.372V435.283ZM732.789 435.283H738.54V447.027H732.621L732.789 435.283ZM541.536 447.027H536.495V435.283H541.536V447.027ZM548.461 447.027H543.366V435.283H548.461V447.027ZM557.297 447.027H550.293V435.283H557.297V447.027ZM564.222 447.027H559.129V435.283H564.222V447.027ZM566.053 447.027V435.283H571.805L571.973 447.027H566.053ZM541.536 520.194H536.495V507.929H541.536V520.194ZM548.461 520.194H543.366V507.929H548.461V520.194ZM557.297 520.194H550.293V507.929H557.297V520.194ZM564.222 520.194H559.129V507.929H564.222V520.194ZM572.021 520.05C571.945 520.097 571.868 520.147 571.789 520.194H566.053V507.929H572.021V520.05ZM717.927 416.806H696.942V411.357H717.927V416.806ZM659.06 447.497V423.569H683.415V447.497H659.06ZM659.06 416.806V411.357H683.415V416.806H659.06ZM645.535 416.806H620.315V411.357H645.535V416.806ZM645.535 423.569V447.497H620.315V423.569H645.535ZM606.788 447.497H585.37V423.569H606.788V447.497ZM606.788 486.507V496.211H585.37V486.507H606.788ZM620.315 486.507H645.535V496.211H620.315V486.507ZM645.535 502.975V522.647H620.315V502.975H645.535ZM659.06 502.975H683.415V522.647H659.06V502.975ZM659.06 496.211V486.507H683.415V496.211H659.06ZM696.942 486.507H717.927V496.211H696.942V486.507ZM696.942 447.497V423.569H717.927V447.497H696.942ZM606.788 411.357V416.806H585.37V411.357H606.788ZM585.37 522.647V502.975H606.788V522.647H585.37ZM696.942 522.647V502.975H717.927V522.647H696.942ZM738.54 520.194H732.804C732.727 520.147 732.65 520.097 732.575 520.05V507.929H738.541V520.194H738.54ZM745.466 520.194H740.372V507.929H745.466V520.194ZM754.302 520.194H747.298V507.929H754.302V520.194ZM761.228 520.194H756.134V507.929H761.228V520.194ZM763.06 520.194V507.929H768.1V520.194H763.06Z" fill="url(#paint32_linear_108_4)"/>
</g>
</g>
<g id="Clip path group_26">
<mask id="mask26_108_4" style="mask-type:luminance" maskUnits="userSpaceOnUse" x="0" y="0" width="800" height="800">
<g id="SVGID_00000117638804252988847700000015393101603832371090__27">
<path id="Vector_64" d="M800 0H0V800H800V0Z" fill="white"/>
</g>
</mask>
<g mask="url(#mask26_108_4)">
<path id="Vector_65" d="M887.083 728.338H-61.28V800H887.083V728.338Z" fill="#44408D"/>
</g>
</g>
</g>
</g>
</g>
</g>
<defs>
<linearGradient id="paint0_linear_108_4" x1="402.77" y1="454.691" x2="402.77" y2="823.574" gradientUnits="userSpaceOnUse">
<stop offset="0.12248" stop-color="#0F3A7C"/>
<stop offset="1" stop-color="#171B1D"/>
</linearGradient>
<linearGradient id="paint1_linear_108_4" x1="63.0285" y1="464.634" x2="63.0285" y2="481.531" gradientUnits="userSpaceOnUse">
<stop offset="0.12248" stop-color="#0F3A7C"/>
<stop offset="1" stop-color="#171B1D"/>
</linearGradient>
<linearGradient id="paint2_linear_108_4" x1="59.7735" y1="454.691" x2="59.7735" y2="473.083" gradientUnits="userSpaceOnUse">
<stop offset="0.12248" stop-color="#0F3A7C"/>
<stop offset="1" stop-color="#171B1D"/>
</linearGradient>
<linearGradient id="paint3_linear_108_4" x1="68.843" y1="497.978" x2="68.843" y2="512.204" gradientUnits="userSpaceOnUse">
<stop offset="0.12248" stop-color="#0F3A7C"/>
<stop offset="1" stop-color="#171B1D"/>
</linearGradient>
<linearGradient id="paint4_linear_108_4" x1="129.595" y1="487.517" x2="129.595" y2="562.799" gradientUnits="userSpaceOnUse">
<stop offset="0.12248" stop-color="#0F3A7C"/>
<stop offset="1" stop-color="#171B1D"/>
</linearGradient>
<linearGradient id="paint5_linear_108_4" x1="129.595" y1="501.483" x2="129.595" y2="576.764" gradientUnits="userSpaceOnUse">
<stop offset="0.12248" stop-color="#0F3A7C"/>
<stop offset="1" stop-color="#171B1D"/>
</linearGradient>
<linearGradient id="paint6_linear_108_4" x1="130.206" y1="479.816" x2="130.206" y2="493.507" gradientUnits="userSpaceOnUse">
<stop offset="0.12248" stop-color="#0F3A7C"/>
<stop offset="1" stop-color="#171B1D"/>
</linearGradient>
<linearGradient id="paint7_linear_108_4" x1="136.579" y1="464.634" x2="136.579" y2="481.531" gradientUnits="userSpaceOnUse">
<stop offset="0.12248" stop-color="#0F3A7C"/>
<stop offset="1" stop-color="#171B1D"/>
</linearGradient>
<linearGradient id="paint8_linear_108_4" x1="139.835" y1="454.691" x2="139.835" y2="473.083" gradientUnits="userSpaceOnUse">
<stop offset="0.12248" stop-color="#0F3A7C"/>
<stop offset="1" stop-color="#171B1D"/>
</linearGradient>
<linearGradient id="paint9_linear_108_4" x1="130.766" y1="497.978" x2="130.766" y2="512.204" gradientUnits="userSpaceOnUse">
<stop offset="0.12248" stop-color="#0F3A7C"/>
<stop offset="1" stop-color="#171B1D"/>
</linearGradient>
<linearGradient id="paint10_linear_108_4" x1="70.0115" y1="487.517" x2="70.0115" y2="562.799" gradientUnits="userSpaceOnUse">
<stop offset="0.12248" stop-color="#0F3A7C"/>
<stop offset="1" stop-color="#171B1D"/>
</linearGradient>
<linearGradient id="paint11_linear_108_4" x1="69.401" y1="479.816" x2="69.401" y2="493.507" gradientUnits="userSpaceOnUse">
<stop offset="0.12248" stop-color="#0F3A7C"/>
<stop offset="1" stop-color="#171B1D"/>
</linearGradient>
<linearGradient id="paint12_linear_108_4" x1="70.0115" y1="501.483" x2="70.0115" y2="576.764" gradientUnits="userSpaceOnUse">
<stop offset="0.12248" stop-color="#0F3A7C"/>
<stop offset="1" stop-color="#171B1D"/>
</linearGradient>
<linearGradient id="paint13_linear_108_4" x1="169.398" y1="522.039" x2="169.398" y2="526.045" gradientUnits="userSpaceOnUse">
<stop offset="0.12248" stop-color="#0F3A7C"/>
<stop offset="1" stop-color="#171B1D"/>
</linearGradient>
<linearGradient id="paint14_linear_108_4" x1="172.572" y1="518.513" x2="172.572" y2="523.803" gradientUnits="userSpaceOnUse">
<stop offset="0.12248" stop-color="#0F3A7C"/>
<stop offset="1" stop-color="#171B1D"/>
</linearGradient>
<linearGradient id="paint15_linear_108_4" x1="246.782" y1="492.772" x2="246.782" y2="499.648" gradientUnits="userSpaceOnUse">
<stop offset="0.12248" stop-color="#0F3A7C"/>
<stop offset="1" stop-color="#171B1D"/>
</linearGradient>
<linearGradient id="paint16_linear_108_4" x1="221.077" y1="488.128" x2="221.077" y2="591.843" gradientUnits="userSpaceOnUse">
<stop offset="0.12248" stop-color="#0F3A7C"/>
<stop offset="1" stop-color="#171B1D"/>
</linearGradient>
<linearGradient id="paint17_linear_108_4" x1="-8.05501" y1="502.583" x2="-8.05501" y2="606.3" gradientUnits="userSpaceOnUse">
<stop offset="0.12248" stop-color="#0F3A7C"/>
<stop offset="1" stop-color="#171B1D"/>
</linearGradient>
<linearGradient id="paint18_linear_108_4" x1="172.743" y1="580.514" x2="172.743" y2="737.841" gradientUnits="userSpaceOnUse">
<stop offset="0.10748" stop-color="#315DA3"/>
<stop offset="1" stop-color="#44408D"/>
</linearGradient>
<linearGradient id="paint19_linear_108_4" x1="447.772" y1="580.514" x2="447.772" y2="737.841" gradientUnits="userSpaceOnUse">
<stop offset="0.10748" stop-color="#315DA3"/>
<stop offset="0.52248" stop-color="#3A5099"/>
<stop offset="1" stop-color="#44408D"/>
</linearGradient>
<linearGradient id="paint20_linear_108_4" x1="170.108" y1="558.253" x2="170.108" y2="695.557" gradientUnits="userSpaceOnUse">
<stop offset="0.525039" stop-color="#315DA3"/>
<stop offset="1" stop-color="#44408D"/>
</linearGradient>
<linearGradient id="paint21_linear_108_4" x1="450.638" y1="558.253" x2="450.638" y2="695.557" gradientUnits="userSpaceOnUse">
<stop offset="0.525039" stop-color="#315DA3"/>
<stop offset="1" stop-color="#44408D"/>
</linearGradient>
<linearGradient id="paint22_linear_108_4" x1="85.7315" y1="657.275" x2="85.7315" y2="704.355" gradientUnits="userSpaceOnUse">
<stop offset="0.525039" stop-color="#315DA3"/>
<stop offset="1" stop-color="#44408D"/>
</linearGradient>
<linearGradient id="paint23_linear_108_4" x1="135.111" y1="642.358" x2="135.111" y2="689.437" gradientUnits="userSpaceOnUse">
<stop offset="0.525039" stop-color="#315DA3"/>
<stop offset="1" stop-color="#44408D"/>
</linearGradient>
<linearGradient id="paint24_linear_108_4" x1="183.388" y1="608.474" x2="183.388" y2="655.554" gradientUnits="userSpaceOnUse">
<stop offset="0.525039" stop-color="#315DA3"/>
<stop offset="1" stop-color="#44408D"/>
</linearGradient>
<linearGradient id="paint25_linear_108_4" x1="235.657" y1="569.865" x2="235.657" y2="616.944" gradientUnits="userSpaceOnUse">
<stop offset="0.525039" stop-color="#315DA3"/>
<stop offset="1" stop-color="#44408D"/>
</linearGradient>
<linearGradient id="paint26_linear_108_4" x1="292.127" y1="542.121" x2="292.127" y2="589.201" gradientUnits="userSpaceOnUse">
<stop offset="0.525039" stop-color="#315DA3"/>
<stop offset="1" stop-color="#44408D"/>
</linearGradient>
<linearGradient id="paint27_linear_108_4" x1="332.313" y1="542.121" x2="332.313" y2="589.201" gradientUnits="userSpaceOnUse">
<stop offset="0.525039" stop-color="#315DA3"/>
<stop offset="1" stop-color="#44408D"/>
</linearGradient>
<linearGradient id="paint28_linear_108_4" x1="385.895" y1="569.865" x2="385.895" y2="616.944" gradientUnits="userSpaceOnUse">
<stop offset="0.525039" stop-color="#315DA3"/>
<stop offset="1" stop-color="#44408D"/>
</linearGradient>
<linearGradient id="paint29_linear_108_4" x1="437.9" y1="608.474" x2="437.9" y2="655.554" gradientUnits="userSpaceOnUse">
<stop offset="0.525039" stop-color="#315DA3"/>
<stop offset="1" stop-color="#44408D"/>
</linearGradient>
<linearGradient id="paint30_linear_108_4" x1="484.39" y1="642.358" x2="484.39" y2="689.437" gradientUnits="userSpaceOnUse">
<stop offset="0.525039" stop-color="#315DA3"/>
<stop offset="1" stop-color="#44408D"/>
</linearGradient>
<linearGradient id="paint31_linear_108_4" x1="536.411" y1="659.178" x2="536.411" y2="706.257" gradientUnits="userSpaceOnUse">
<stop offset="0.525039" stop-color="#315DA3"/>
<stop offset="1" stop-color="#44408D"/>
</linearGradient>
<linearGradient id="paint32_linear_108_4" x1="652.302" y1="290.116" x2="652.302" y2="702.308" gradientUnits="userSpaceOnUse">
<stop offset="0.525039" stop-color="#315DA3"/>
<stop offset="1" stop-color="#44408D"/>
</linearGradient>
<clipPath id="clip0_108_4">
<rect width="800" height="800" fill="white"/>
</clipPath>
</defs>
</svg>
